<svg width="512" height="512" viewBox="0 0 512 512" version="1.1" xmlns="http://www.w3.org/2000/svg" xmlns:xlink="http://www.w3.org/1999/xlink" xmlns:figma="http://www.figma.com/figma/ns">
<title>Mask Group</title>
<desc>Created using Figma</desc>
<g id="Canvas" transform="translate(343 -1044)" figma:type="canvas">
<mask id="mask0_alpha" mask-type="alpha">
<path d="M -343 1044L 169 1044L 169 1556L -343 1556L -343 1044Z" fill="#FFFFFF"/>
</mask>
<g id="Mask Group" mask="url(#mask0_alpha)" figma:type="frame">
<g id="Icon" figma:type="frame">
<g id="2615" figma:type="frame">
<g id="Vector" figma:type="vector">
<use xlink:href="#path0_fill" transform="translate(50.2819 1301.61)" fill="#EFF6F7"/>
</g>
<g id="Vector" figma:type="vector">
<use xlink:href="#path1_fill" transform="translate(0.654663 1336.24)" fill="#EFF6F7"/>
</g>
<g id="Vector" figma:type="vector">
<use xlink:href="#path2_fill" transform="translate(-184.957 1312.21)" fill="#D2D8D9"/>
</g>
<g id="Vector" figma:type="vector">
<use xlink:href="#path3_fill" transform="translate(-258 1282.02)" fill="#EFF6F7"/>
</g>
<g id="Vector" figma:type="vector">
<use xlink:href="#path4_fill" transform="translate(-258 1215.59)" fill="#EFF6F7"/>
</g>
<g id="Vector" figma:type="vector">
<use xlink:href="#path5_fill" transform="translate(-250.663 1217.66)" fill="#D2D8D9"/>
</g>
<g id="Vector" figma:type="vector">
<use xlink:href="#path6_fill" transform="translate(-247.462 1242.88)" fill="#724E41"/>
</g>
<g id="Group" figma:type="frame">
<g id="Vector" figma:type="vector">
<use xlink:href="#path7_fill" transform="translate(-203.646 1259.73)" fill="#8F6A54"/>
</g>
<g id="Vector" figma:type="vector">
<use xlink:href="#path8_fill" transform="translate(-170.296 1270.63)" fill="#B59267"/>
</g>
<g id="Vector" figma:type="vector">
<use xlink:href="#path9_fill" transform="translate(-147.203 1282.83)" fill="#F9F3D9"/>
</g>
</g>
<g id="Group" opacity="0.6" figma:type="frame">
<g id="Vector" opacity="0.6" figma:type="vector">
<use xlink:href="#path10_fill" transform="translate(-189.13 1098)" fill="#FFFFFF"/>
</g>
</g>
</g>
</g>
</g>
</g>
<defs>
<path id="path0_fill" d="M 5.3833e-06 33.7293L 18.6135 18.3695L 56.3108 16.4813L 83.7181 43.7972C 83.7181 11.3265 61.9425 -8.76999 18.6069 3.77401C 15.8629 4.57108 7.2324 5.03495 7.2324 5.03495L 5.3833e-06 33.7293L 5.3833e-06 33.7293Z"/>
<path id="path1_fill" d="M 117.796 7.61888C 117.796 37.9728 46.354 45.9499 24.598 61.2053C 15.4709 67.6014 9.96908e-07 96.1978 9.96908e-07 96.1978L 126.923 22.737C 126.93 22.737 117.796 -15.9665 117.796 7.61888Z"/>
<path id="path2_fill" d="M 235.239 34.1154L 245.862 31.6458C 245.862 31.6458 247.633 21.5714 256.1 14.0058C 266.945 4.34298 303.539 6.45324 303.539 30.0386C 303.539 68.925 230.078 80.8679 208.315 96.1298C 199.195 102.526 188.735 122.368 188.735 122.368C 188.735 122.368 196.653 123.844 198.424 122.368C 231.737 94.8623 318.957 83.4094 318.957 31.9986C 318.957 13.555 292.145 -9.57302 253.846 4.16005C 251.187 5.11392 242.472 5.43405 242.472 5.43405L 235.239 34.1154ZM 174.571 131.965L 1.99382e-06 131.965C 1.99382e-06 131.965 2.28013 150.023 25.5911 164.645C 34.2085 170.035 54.7232 177.79 87.2853 177.79C 119.861 177.79 140.382 170.028 148.986 164.645C 172.297 150.023 174.571 131.965 174.571 131.965Z"/>
<path id="path3_fill" d="M 320.676 2.39258e-06L 0 2.39258e-06C 0 2.39258e-06 4.1748 76.3943 46.9943 138.206C 62.8245 161.079 100.509 193.896 160.335 193.896C 220.186 193.896 257.858 161.079 273.681 138.206C 316.494 76.3943 320.676 2.39258e-06 320.676 2.39258e-06Z"/>
<path id="path4_fill" d="M 160.328 133.541C 248.875 133.541 320.656 103.647 320.656 66.7707C 320.656 29.8942 248.875 3.58887e-06 160.328 3.58887e-06C 71.7813 3.58887e-06 0 29.8942 0 66.7707C 0 103.647 71.7813 133.541 160.328 133.541Z"/>
<path id="path5_fill" d="M 152.998 25.2252C 226.792 25.2252 288.349 46.3017 302.774 74.3297C 304.854 70.4475 305.96 66.118 305.995 61.7139C 305.995 27.6295 237.5 -9.96907e-08 152.998 -9.96907e-08C 68.4824 -9.96907e-08 -6.10606e-07 27.6295 -6.10606e-07 61.7139C -6.10606e-07 66.0455 1.12373 70.2595 3.20133 74.3297C 17.6531 46.2952 79.2102 25.2252 152.998 25.2252L 152.998 25.2252Z"/>
<path id="path6_fill" d="M 149.796 98.2287C 223.59 98.2287 285.147 77.1456 299.573 49.1045C 285.147 21.0765 223.59 3.88794e-06 149.796 3.88794e-06C 76.0088 3.88794e-06 14.4517 21.0765 -5.48299e-07 49.1045C 14.4517 77.1456 76.0088 98.2287 149.796 98.2287Z"/>
<path id="path7_fill" d="M 208.672 15.6799C 186.086 -10.4273 112.749 1.28045 105.968 14.3275C 96.638 0.431116 25.1176 -9.93728 3.2767 15.6865C -10.4106 31.7846 21.2238 46.9354 52.9692 57.8526C 72.9808 65.4509 52.9692 74.0683 52.9692 74.0683C 132.467 74.0683 188.327 46.0011 188.327 46.0011C 206.496 36.8806 217.903 26.3554 208.672 15.6799L 208.672 15.6799Z"/>
<path id="path8_fill" d="M 137.944 13.9727C 124.675 -6.97316 75.6552 1.61163 70.3959 11.9016C 65.0908 0.775367 18.6192 -8.14916 2.65831 12.0127C -7.32463 24.6482 12.589 36.9766 32.8227 45.9534C 45.5366 52.1862 31.8231 58.8306 31.8231 58.8306C 84.1747 59.595 122.702 37.852 122.702 37.852L 122.689 37.852C 135.213 30.7895 143.38 22.5444 137.944 13.9727L 137.944 13.9727Z"/>
<path id="path9_fill" d="M 92.3309 9.35654C 83.4456 -4.66399 50.6417 1.08534 47.1137 7.97148C 43.5792 0.523476 12.4609 -5.45452 1.78548 8.03028C -4.91119 16.4909 8.42334 24.7621 21.9735 30.7597C 30.4799 34.928 21.294 39.3772 21.294 39.3772C 56.3323 39.8868 82.1193 25.324 82.1193 25.324C 90.5081 20.6004 95.97 15.0928 92.3309 9.35654L 92.3309 9.35654Z"/>
<path id="path10_fill" d="M 100.219 61.4721C 76.1042 36.4495 92.1501 0 92.1501 0C 92.1501 0 41.5037 48.1768 73.4909 81.3923C 110.502 119.828 92.1501 143.733 92.1501 143.733C 92.1501 143.733 138.027 100.724 100.219 61.4721ZM 27.9993 83.9076C 9.91502 65.7123 21.9429 39.2 21.9429 39.2C 21.9429 39.2 -16.0419 74.2383 7.94196 98.3985C 35.7086 126.348 21.9429 143.733 21.9429 143.733C 21.9429 143.733 56.3474 112.452 27.9993 83.9076ZM 171.733 83.9011C 153.648 65.7057 165.676 39.2 165.676 39.2C 165.676 39.2 127.691 74.2383 151.675 98.3985C 179.442 126.342 165.676 143.733 165.676 143.733C 165.676 143.733 200.081 112.445 171.733 83.9011Z"/>
</defs>
</svg>
