<svg xmlns="http://www.w3.org/2000/svg" width="256" height="256" viewBox="0 0 256 256" xmlns:xlink="http://www.w3.org/1999/xlink" xmlns:figma="http://www.figma.com/figma/ns">
  <g figma:type="canvas">
    <g figma:type="frame">
      <g figma:type="rounded-rectangle" transform="translate(-91 -1338)">
        <use fill="#BF9EFF" xlink:href="#a" transform="translate(91 1338)" style="mix-blend-mode:darken"/>
      </g>
      <g figma:type="frame">
        <g figma:type="vector" transform="translate(-91 -1338)">
          <use fill="#EFF6F7" xlink:href="#b" transform="translate(286.14 1466.8)"/>
        </g>
        <g figma:type="vector" transform="translate(-91 -1338)">
          <use fill="#EFF6F7" xlink:href="#c" transform="translate(261.327 1484.12)"/>
        </g>
        <g figma:type="vector" transform="translate(-91 -1338)">
          <use fill="#D2D8D9" xlink:href="#d" transform="translate(168.52 1472.11)"/>
        </g>
        <g figma:type="vector" transform="translate(-91 -1338)">
          <use fill="#EFF6F7" xlink:href="#e" transform="translate(132 1457.01)"/>
        </g>
        <g figma:type="vector" transform="translate(-91 -1338)">
          <use fill="#EFF6F7" xlink:href="#f" transform="translate(132 1423.8)"/>
        </g>
        <g figma:type="vector" transform="translate(-91 -1338)">
          <use fill="#D2D8D9" xlink:href="#g" transform="translate(135.668 1424.83)"/>
        </g>
        <g figma:type="vector" transform="translate(-91 -1338)">
          <use fill="#724E41" xlink:href="#h" transform="translate(137.27 1437.44)"/>
        </g>
        <g figma:type="frame">
          <g figma:type="vector" transform="translate(-91 -1338)">
            <use fill="#8F6A54" xlink:href="#i" transform="translate(159.177 1445.86)"/>
          </g>
          <g figma:type="vector" transform="translate(-91 -1338)">
            <use fill="#B59267" xlink:href="#j" transform="translate(175.852 1451.31)"/>
          </g>
          <g figma:type="vector" transform="translate(-91 -1338)">
            <use fill="#F9F3D9" xlink:href="#k" transform="translate(187.398 1457.42)"/>
          </g>
        </g>
        <g opacity=".6" figma:type="frame">
          <g opacity=".6" figma:type="vector" transform="translate(-91 -1338)">
            <use fill="#FFF" xlink:href="#l" transform="translate(166.435 1365)"/>
          </g>
        </g>
      </g>
    </g>
  </g>
  <defs>
    <path id="a" d="M0 0h256v256H0V0z"/>
    <path id="b" d="M0 16.865l9.307-7.68 18.848-.944L41.86 21.9c0-16.237-10.89-26.285-32.557-20.013-1.372.4-5.687.63-5.687.63L0 16.865z"/>
    <path id="c" d="M58.898 3.81c0 15.176-35.72 19.165-46.6 26.793C7.736 33.8 0 48.1 0 48.1l63.462-36.732c.003 0-4.564-19.35-4.564-7.56z"/>
    <path id="d" d="M117.62 17.058l5.31-1.235s.886-5.037 5.12-8.82c5.423-4.832 23.72-3.776 23.72 8.016 0 19.442-36.73 25.414-47.612 33.045-4.56 3.198-9.79 13.12-9.79 13.12s3.96.737 4.844 0c16.657-13.754 60.267-19.48 60.267-45.186 0-9.223-13.408-20.787-32.557-13.92-1.33.477-5.687.637-5.687.637l-3.616 14.34zM87.285 65.983H0s1.14 9.03 12.796 16.34c4.308 2.694 14.566 6.572 30.847 6.572 16.287 0 26.548-3.88 30.85-6.573 11.656-7.31 12.792-16.34 12.792-16.34z"/>
    <path id="e" d="M160.338 0H0s2.087 38.197 23.497 69.103c7.915 11.437 26.757 27.845 56.67 27.845 29.926 0 48.762-16.408 56.674-27.845C158.248 38.197 160.34 0 160.34 0z"/>
    <path id="f" d="M80.164 66.77c44.273 0 80.164-14.946 80.164-33.385C160.328 14.947 124.438 0 80.164 0 35.89 0 0 14.947 0 33.385 0 51.825 35.89 66.77 80.164 66.77z"/>
    <path id="g" d="M76.5 12.613c36.896 0 67.674 10.538 74.887 24.552 1.04-1.94 1.593-4.106 1.61-6.308C152.998 13.815 118.75 0 76.5 0 34.24 0 0 13.815 0 30.857c0 2.166.562 4.273 1.6 6.308 7.227-14.017 38.005-24.552 74.9-24.552z"/>
    <path id="h" d="M74.898 49.114c36.897 0 67.676-10.54 74.888-24.562C142.574 10.538 111.796 0 74.898 0 38.004 0 7.226 10.538 0 24.552c7.226 14.02 38.004 24.562 74.898 24.562z"/>
    <path id="i" d="M104.336 7.84C93.043-5.214 56.376.64 52.984 7.164 48.32.216 12.56-4.97 1.638 7.844c-6.843 8.048 8.974 15.624 24.847 21.082 10.005 3.8 0 8.108 0 8.108C66.233 37.034 94.163 23 94.163 23c9.085-4.56 14.79-9.822 10.173-15.16z"/>
    <path id="j" d="M68.972 6.986C62.337-3.487 37.828.806 35.198 5.95 32.545.39 9.31-4.074 1.328 6.007c-4.99 6.318 4.966 12.482 15.083 16.97 6.358 3.117-.498 6.44-.498 6.44 26.175.38 45.44-10.49 45.44-10.49h-.008c6.263-3.53 10.346-7.654 7.628-11.94z"/>
    <path id="k" d="M46.166 4.678c-4.443-7.01-20.845-4.135-22.61-.692C21.79.262 6.23-2.727.894 4.016c-3.35 4.23 3.32 8.365 10.094 11.364 4.253 2.084-.34 4.31-.34 4.31 17.52.253 30.413-7.028 30.413-7.028 4.194-2.362 6.925-5.116 5.105-7.984z"/>
    <path id="l" d="M50.11 30.736C38.05 18.226 46.074 0 46.074 0s-25.323 24.088-9.33 40.696c18.506 19.218 9.33 31.17 9.33 31.17s22.94-21.504 4.034-41.13zM14 41.954C4.958 32.856 10.97 19.6 10.97 19.6s-18.99 17.52-7 29.6c13.884 13.974 7 22.667 7 22.667S28.175 56.227 14 41.954zm71.866-.004c-9.042-9.097-3.028-22.35-3.028-22.35s-18.992 17.52-7 29.6c13.883 13.97 7 22.667 7 22.667s17.202-15.644 3.028-29.917z"/>
  </defs>
</svg>
